<svg width="24" height="24" viewBox="0 0 24 24" fill="none" xmlns="http://www.w3.org/2000/svg"><path fill-rule="evenodd" clip-rule="evenodd" d="M12.22 5.894l-5.03-.031 2.47 15.726h6.018l2.47-15.726-5.928.03z" fill="#FF9100"/><path fill-rule="evenodd" clip-rule="evenodd" d="M12.22 5.894l-5.03-.031 2.47 15.726h4.761l2.47-15.726-4.671.03z" fill="#FD0"/><path fill-rule="evenodd" clip-rule="evenodd" d="M5.75 5.863h12.979v-1.45H5.75v1.45z" fill="#fff"/><path d="M5.75 5.863h-.44v.44h.44v-.44zm12.979 0v.44h.44v-.44h-.44zm0-1.45h.44v-.44h-.44v.44zm-12.98 0v-.44h-.44v.44h.44zm0 1.89h12.98v-.88H5.748v.88zm13.42-.44v-1.45h-.88v1.45h.88zm-.44-1.89H5.748v.88h12.98v-.88zm-13.42.44v1.45h.881v-1.45h-.88z" fill="#000"/><path fill-rule="evenodd" clip-rule="evenodd" d="M16.222 2.056H8.183L7.24 4.231h9.925l-.943-2.175z" fill="#fff"/><path d="M16.222 2.056l.404-.175-.115-.265h-.29v.44zm-8.039 0v-.44h-.289l-.115.265.404.175zM7.24 4.231l-.404-.175-.267.616h.671v-.44zm9.925 0v.44h.67l-.266-.615-.404.175zm-.943-2.615h-3.099v.88h3.099v-.88zm-3.099 0h-1.841v.88h1.841v-.88zm-1.841 0H8.183v.88h3.099v-.88zm-3.503.265l-.943 2.175.808.35.943-2.175-.808-.35zM7.24 4.67h4.042v-.88H7.24v.88zm4.042 0h1.841v-.88h-1.841v.88zm1.841 0h4.042v-.88h-4.042v.88zm4.446-.615l-.943-2.175-.808.35.943 2.175.808-.35z" fill="#050505"/><path d="M12.218 5.894l-.002.44h.004l-.002-.44zM6.29 5.863l.002-.44-.517-.003.08.511.435-.068zm2.47 15.726l-.435.068.059.372h.376v-.44zm6.916 0v.44h.377l.058-.372-.435-.068zm2.47-15.726l.435.068.08-.511-.517.003.002.44zm-5.926-.41l-5.928-.03-.004.88 5.928.03.004-.88zm-6.365.478l2.47 15.726.87-.137-2.47-15.725-.87.136zM8.76 22.03h.54v-.88h-.54v.88zm.539 0h5.838v-.88H9.3v.88zm5.838 0h.54v-.88h-.54v.88zm.974-.372l2.47-15.726-.87-.136-2.47 15.725.87.137zm2.033-16.234l-5.928.03.004.88 5.928-.03-.004-.88z" fill="#000"/><path fill-rule="evenodd" clip-rule="evenodd" d="M18.33 10.304H6.07l1.107 6.254 5.023-.055 5.023.055 1.107-6.254z" fill="#fff"/><path d="M18.33 10.304l.434.077.091-.517h-.525v.44zm-12.26 0v-.44h-.525l.091.517.434-.077zm1.107 6.254l-.434.077.065.367.374-.004-.005-.44zm5.023-.055l.005-.44h-.01l.005.44zm5.023.055l-.005.44.374.004.065-.367-.434-.077zm1.107-6.694h-5.917v.88h5.917v-.88zm-5.917 0h-.426v.88h.426v-.88zm-.426 0H6.07v.88h5.917v-.88zm-6.35.517l1.106 6.254.867-.154-1.106-6.254-.868.154zm1.545 6.617l5.023-.054-.01-.88-5.023.054.01.88zm5.013-.054l5.023.054.01-.88-5.023-.055-.01.88zm5.462-.31l1.107-6.253-.867-.154-1.107 6.254.867.154z" fill="#000"/></svg>